<?xml version="1.0"?>
<svg xmlns="http://www.w3.org/2000/svg" xmlns:xlink="http://www.w3.org/1999/xlink" version="1.1" id="Capa_1" x="0px" y="0px" viewBox="0 0 496 496" style="enable-background:new 0 0 496 496;" xml:space="preserve" width="512px" height="512px" class=""><g><g>
	<g>
		<path d="M248,168c-35.288,0-64,28.712-64,64c0,35.288,28.712,64,64,64c35.288,0,64-28.712,64-64C312,196.712,283.288,168,248,168z     M248,280c-26.472,0-48-21.528-48-48s21.528-48,48-48s48,21.528,48,48S274.472,280,248,280z" data-original="#000000" class="active-path" data-old_color="#0007FF" fill="#3F42A5"/>
	</g>
</g><g>
	<g>
		<path d="M440,352v-56h-91.656l-3.736-7.472c3.12-5.304,5.72-10.84,7.904-16.528H384c48.52,0,88-39.48,88-88    c0-43.056-30.576-79.112-72.208-86.584C396.384,43.128,351.136,0,296,0c-35.248,0-67.936,17.88-87.064,47.144    C198.6,42.456,187.344,40,176,40c-41.536,0-75.784,31.824-79.64,72.36C55.824,116.216,24,150.464,24,192c0,44.112,35.888,80,80,80    h39.488c2.184,5.688,4.784,11.224,7.904,16.528L147.656,296H72v72H0v128h160V368H88v-56h58.984l25.904,25.904l18.584-9.296    c8.872,5.208,18.328,9.144,28.208,11.728L226.232,360h43.528l6.56-19.664c9.88-2.584,19.336-6.512,28.208-11.728l18.584,9.296    L349.016,312H424v40h-56v144h128V352H440z M16,395.312l43.824,43.824L16,472V395.312z M32,480l39.248-29.44L80,459.312    l8.752-8.752L128,480H32z M144,472l-43.824-32.864L144,395.312V472z M132.688,384L80,436.688L27.312,384H132.688z M104,256    c-35.288,0-64-28.712-64-64c0-35.288,28.712-64,64-64h8v-8c0-35.288,28.712-64,64-64c11.16,0,22.2,2.976,31.928,8.6l7.064,4.08    l3.944-7.144C234.448,33.448,263.984,16,296,16c48.52,0,88,39.48,88.008,87.6l-0.032,8.048l7.208,0.712    C428.136,116.024,456,146.824,456,184c0,39.696-32.304,72-72,72h-14.704l6.704-2.232V210.24l-19.664-6.56    c-2.584-9.88-6.512-19.336-11.728-28.208l9.296-18.584l-30.784-30.784l-18.584,9.296c-8.872-5.208-18.328-9.144-28.208-11.728    L269.768,104H226.24l-6.56,19.664c-9.88,2.584-19.336,6.512-28.208,11.728l-18.584-9.296l-30.784,30.784l9.296,18.584    c-5.208,8.872-9.144,18.328-11.728,28.208L120,210.232v43.528l6.704,2.24H104z M341.768,252.44    c-2.416,11.128-6.808,21.672-13.032,31.36l-2.464,3.832l8.168,16.328l-14.472,14.472l-16.328-8.168l-3.832,2.464    c-9.688,6.232-20.24,10.616-31.36,13.032L264,326.728L258.232,344H237.76L232,326.736l-4.448-0.968    c-11.128-2.416-21.672-6.808-31.36-13.032l-3.832-2.464l-16.328,8.168l-14.472-14.472l8.168-16.328l-2.464-3.832    c-6.232-9.688-10.616-20.24-13.032-31.36L153.264,248L136,242.232V221.76l17.264-5.76l0.968-4.448    c2.416-11.128,6.808-21.672,13.032-31.36l2.464-3.832l-8.168-16.328l14.472-14.472l16.328,8.168l3.832-2.464    c9.688-6.232,20.24-10.616,31.36-13.032l4.448-0.968L237.768,120h20.472l5.76,17.264l4.448,0.968    c11.128,2.416,21.672,6.808,31.36,13.032l3.832,2.464l16.328-8.168l14.472,14.472l-8.168,16.328l2.464,3.832    c6.232,9.688,10.616,20.24,13.032,31.36l0.968,4.448L360,221.768v20.472L342.736,248L341.768,252.44z M480,480h-96V368h96V480z" data-original="#000000" class="active-path" data-old_color="#0007FF" fill="#3F42A5"/>
	</g>
</g><g>
	<g>
		<rect x="400" y="384" width="64" height="16" data-original="#000000" class="active-path" data-old_color="#0007FF" fill="#3F42A5"/>
	</g>
</g><g>
	<g>
		<rect x="400" y="416" width="64" height="16" data-original="#000000" class="active-path" data-old_color="#0007FF" fill="#3F42A5"/>
	</g>
</g><g>
	<g>
		<rect x="448" y="448" width="16" height="16" data-original="#000000" class="active-path" data-old_color="#0007FF" fill="#3F42A5"/>
	</g>
</g><g>
	<g>
		<rect x="400" y="448" width="32" height="16" data-original="#000000" class="active-path" data-old_color="#0007FF" fill="#3F42A5"/>
	</g>
</g><g>
	<g>
		<path d="M296,32v16c28.192,0,52.08,21.064,55.568,48.992l15.872-1.976C362.96,59.088,332.248,32,296,32z" data-original="#000000" class="active-path" data-old_color="#0007FF" fill="#3F42A5"/>
	</g>
</g><g>
	<g>
		<path d="M72,192H56c0,26.472,21.528,48,48,48v-16C86.352,224,72,209.648,72,192z" data-original="#000000" class="active-path" data-old_color="#0007FF" fill="#3F42A5"/>
	</g>
</g></g> </svg>
