<?xml version="1.0"?>
<svg xmlns="http://www.w3.org/2000/svg" height="512px" viewBox="0 -30 512 512" width="512px" class=""><g><path d="m145.058594 170.667969c-1.304688 0-2.636719-.300781-3.875-.941407-10.136719-5.179687-22.460938-7.59375-38.785156-7.59375-4.707032 0-8.53125-3.824218-8.53125-8.53125 0-4.710937 3.824218-8.535156 8.53125-8.535156 19.125 0 33.921874 3.011719 46.550781 9.472656 4.199219 2.140626 5.863281 7.285157 3.710937 11.476563-1.507812 2.953125-4.496094 4.652344-7.601562 4.652344zm0 0" data-original="#000000" class="active-path" data-old_color="#CC2929" fill="#E62626"/><path d="m256 452.265625c-61.167969 0-110.933594-49.765625-110.933594-110.933594 0-61.164062 49.765625-110.933593 110.933594-110.933593s110.933594 49.769531 110.933594 110.933593c0 61.167969-49.765625 110.933594-110.933594 110.933594zm0-204.800781c-51.753906 0-93.867188 42.113281-93.867188 93.867187 0 51.757813 42.113282 93.867188 93.867188 93.867188s93.867188-42.109375 93.867188-93.867188c0-51.753906-42.113282-93.867187-93.867188-93.867187zm0 0" data-original="#000000" class="active-path" data-old_color="#CC2929" fill="#E62626"/><path d="m392.535156 349.867188h-34.136718c-4.707032 0-8.53125-3.824219-8.53125-8.535157 0-51.753906-42.113282-93.867187-93.867188-93.867187s-93.867188 42.113281-93.867188 93.867187c0 4.710938-3.824218 8.535157-8.53125 8.535157h-51.203124c-56.464844 0-102.398438-45.933594-102.398438-102.402344 0-53.699219 41.558594-97.875 94.191406-102.074219 4.199219-52.632813 48.375-94.191406 102.074219-94.191406 13.382813 0 25.277344 0 38.1875 5.308593 15.972656-34.160156 54.210937-56.507812 98.347656-56.507812 56.464844 0 102.398438 45.933594 102.398438 102.398438 0 5.234374-.441407 10.574218-1.3125 15.957031 46.359375 17.152343 78.113281 62.148437 78.113281 112.042969 0 65.878906-53.589844 119.46875-119.464844 119.46875zm-25.925781-17.066407h25.925781c56.464844 0 102.398438-45.9375 102.398438-102.402343 0-45.003907-30.148438-85.355469-73.300782-98.140626-4.34375-1.289062-6.929687-5.742187-5.878906-10.144531 1.578125-6.691406 2.378906-13.320312 2.378906-19.714843 0-47.050782-38.28125-85.332032-85.332031-85.332032-39.9375 0-75.203125 22.160156-85.769531 53.898438-.808594 2.449218-2.6875 4.394531-5.101562 5.296875-2.40625.898437-5.105469.675781-7.324219-.640625-11.929688-7.023438-21.347657-7.355469-38.339844-7.355469-47.050781 0-85.332031 38.28125-85.332031 85.335937 0 4.707032-3.824219 8.53125-8.535156 8.53125-47.050782 0-85.332032 38.28125-85.332032 85.332032 0 47.054687 38.28125 85.335937 85.332032 85.335937h42.992187c4.371094-57.199219 52.308594-102.402343 110.609375-102.402343s106.238281 45.203124 110.609375 102.402343zm0 0" data-original="#000000" class="active-path" data-old_color="#CC2929" fill="#E62626"/><path d="m219.792969 386.074219c-2.183594 0-4.367188-.835938-6.03125-2.5-3.339844-3.335938-3.339844-8.730469 0-12.066407l72.402343-72.40625c3.335938-3.335937 8.730469-3.335937 12.066407 0 3.335937 3.335938 3.335937 8.730469 0 12.066407l-72.40625 72.40625c-1.660157 1.664062-3.847657 2.5-6.03125 2.5zm0 0" data-original="#000000" class="active-path" data-old_color="#CC2929" fill="#E62626"/><path d="m292.207031 386.074219c-2.183593 0-4.371093-.835938-6.03125-2.5l-72.40625-72.40625c-3.335937-3.335938-3.335937-8.730469 0-12.066407 3.335938-3.335937 8.730469-3.335937 12.066407 0l72.402343 72.40625c3.339844 3.335938 3.339844 8.730469 0 12.066407-1.671875 1.664062-3.847656 2.5-6.03125 2.5zm0 0" data-original="#000000" class="active-path" data-old_color="#CC2929" fill="#E62626"/></g> </svg>
